<?xml version="1.0" encoding="UTF-8"?>
<!DOCTYPE svg PUBLIC "-//W3C//DTD SVG 1.1//EN" "http://www.w3.org/Graphics/SVG/1.1/DTD/svg11.dtd">
<!-- Creator: CorelDRAW X7 -->
<svg xmlns="http://www.w3.org/2000/svg" xml:space="preserve" width="297mm" height="210mm" version="1.1" style="shape-rendering:geometricPrecision; text-rendering:geometricPrecision; image-rendering:optimizeQuality; fill-rule:evenodd; clip-rule:evenodd"
viewBox="0 0 29700 21000"
 xmlns:xlink="http://www.w3.org/1999/xlink">
 <defs>
  <style type="text/css">
   <![CDATA[
    .fil0 {fill:#FEFEFE}
    .fil3 {fill:#FEFEFE}
    .fil5 {fill:#C0D4E0}
    .fil2 {fill:#6493BD}
    .fil1 {fill:#3870A2}
    .fil4 {fill:#FEFEFE;fill-rule:nonzero}
   ]]>
  </style>
 </defs>
 <g id="Слой_x0020_1">
  <metadata id="CorelCorpID_0Corel-Layer"/>
  <path class="fil0" d="M14581 5568l-102 1009 -2204 611 2306 -418 3073 591 -3011 -752 -62 -1041zm-2661 5279l2672 1152 1983 -823 -1895 1068 -99 1013 -183 -1017 -2478 -1393zm541 -1267l2016 502 92 973 12 4 10 -3 104 -953 1298 -395 -1416 166 -2116 -294zm2095 -1813l-90 601 79 493 36 2 36 -2 89 -481 -106 -614 -20 -2 -24 3z"/>
  <path class="fil1" d="M13777 9398l804 -1820 -2306 -391 187 2391 1315 -180zm1160 -707l1824 91 -185 2392 -1208 -411 -273 -898 -578 -336 420 -838z"/>
  <path class="fil2" d="M16576 11174l-1979 -673 -8 555 -8 3 -12 -4 -10 -567 -447 -152 -2191 509 0 1 2659 1288 1995 -959 1 -1zm1078 -3815l-3073 219 -2306 -391 2306 -508 3073 680zm-1661 2348l-2216 -309 -1315 180 1 0 2118 377 1412 -248zm-1408 2448l-1 1 1 0 0 -1z"/>
  <path class="fil3" d="M17158 11542c-215,143 -430,286 -644,429 -215,143 -430,286 -644,428 -215,143 -430,286 -645,428 -214,143 -429,286 -644,429l16 -1084 1979 -998 -1 1 1 -1c20,-266 41,-532 61,-798 21,-266 42,-531 63,-797 20,-265 41,-531 61,-797 -242,9 -484,18 -726,26 -243,10 -485,19 -727,27 -231,9 -461,18 -691,26l-17 -1095c243,24 485,48 728,71 250,25 499,50 748,73 249,25 498,50 748,73 249,25 498,50 747,74 -27,232 -55,465 -82,697 -28,233 -56,466 -83,697 -27,232 -55,465 -83,697 -27,233 -55,465 -82,697 -28,232 -55,465 -83,697zm-2577 1714l0 0 0 -19 0 19zm3073 -5897c28,-232 55,-464 83,-697 -263,-91 -526,-182 -789,-274 -263,-91 -526,-182 -789,-274 -263,-90 -526,-182 -789,-273 -263,-91 -526,-183 -789,-274l21 1064 3052 728zm-2388 3472c229,-75 457,-151 686,-227 14,-299 28,-598 41,-897l-1389 317 -15 1032c0,0 457,-151 677,-225z"/>
  <path class="fil4" d="M8506 15433c124,0 230,-19 319,-57 89,-37 158,-92 205,-163 48,-72 72,-159 72,-260 0,-64 -11,-120 -33,-165 -21,-46 -50,-85 -87,-117 -36,-32 -77,-58 -123,-78 -45,-21 -92,-37 -141,-50 -49,-13 -96,-24 -141,-32 -46,-9 -86,-17 -123,-25 -37,-7 -66,-16 -87,-26 -22,-11 -33,-24 -33,-40 -1,-12 3,-22 9,-32 6,-9 17,-16 32,-22 16,-5 37,-8 64,-8 44,0 90,5 137,15 47,10 94,25 140,46 46,20 89,45 129,76l224 -296c-79,-65 -168,-113 -267,-145 -99,-32 -206,-48 -319,-48 -95,1 -178,13 -250,39 -71,25 -131,59 -179,102 -48,43 -84,92 -109,146 -24,55 -36,112 -36,171 1,67 12,126 33,174 22,48 51,89 88,122 36,32 77,59 123,80 46,21 93,37 141,50 49,12 96,22 142,30 46,8 87,15 123,22 37,7 66,16 88,25 21,10 32,23 33,39 -1,18 -8,33 -22,44 -15,11 -33,19 -57,24 -23,5 -48,7 -75,7 -62,0 -120,-8 -175,-24 -54,-16 -105,-37 -150,-64 -45,-27 -85,-57 -120,-90l-217 311c48,44 104,83 166,116 62,32 133,58 211,76 79,18 167,27 265,27zm1417 0c116,0 217,-15 303,-44 85,-30 156,-71 212,-124 56,-53 98,-116 125,-188 28,-73 41,-152 41,-238l0 -812 -424 0 0 799c0,45 -10,85 -29,121 -19,36 -48,64 -86,85 -38,21 -86,32 -142,32 -58,0 -106,-11 -144,-32 -38,-21 -67,-49 -86,-85 -20,-36 -29,-76 -29,-121l0 -799 -425 0 0 814c0,86 14,164 42,237 27,71 69,134 125,187 56,53 127,94 213,124 86,29 187,44 304,44zm2546 -25l0 -1381 -578 0 -243 662 -242 -662 -578 0 0 1381 418 0 0 -830 309 830 187 0 308 -830 0 830 419 0zm1620 0l-510 -1381 -526 0 -510 1381 475 0 49 -161 497 0 50 161 475 0zm-636 -526l-274 0 137 -445 137 445zm1301 526l0 -1017 368 0 0 -364 -1158 0 0 364 371 0 0 1017 419 0zm1158 25c85,0 166,-11 242,-33 76,-22 145,-55 208,-96 63,-42 117,-92 162,-150 46,-59 81,-125 106,-198 25,-73 37,-152 38,-237 -1,-86 -13,-165 -38,-238 -25,-73 -60,-139 -106,-198 -45,-58 -99,-108 -162,-150 -63,-41 -132,-74 -208,-96 -76,-22 -157,-33 -242,-33 -86,0 -167,11 -243,33 -76,22 -145,55 -208,96 -63,42 -117,92 -162,150 -46,59 -81,125 -106,198 -25,73 -37,152 -38,238 1,85 13,164 38,237 25,73 60,139 106,198 45,58 99,108 162,150 63,41 132,74 208,96 76,22 157,33 243,33zm0 -369c-51,0 -96,-9 -137,-26 -41,-18 -75,-43 -104,-74 -29,-32 -52,-68 -67,-110 -16,-42 -24,-87 -24,-135 0,-49 8,-94 24,-136 15,-42 38,-78 67,-110 29,-31 63,-56 104,-74 41,-17 86,-26 137,-26 50,0 96,9 136,26 41,18 76,43 105,74 29,32 51,68 67,110 15,42 23,87 23,136 0,48 -8,93 -23,135 -16,42 -38,78 -67,110 -29,31 -64,56 -105,74 -40,17 -86,26 -136,26zm1441 369c125,0 231,-19 320,-57 89,-37 157,-92 205,-163 47,-72 72,-159 72,-260 0,-64 -11,-120 -33,-165 -22,-46 -51,-85 -87,-117 -37,-32 -78,-58 -123,-78 -46,-21 -93,-37 -141,-50 -49,-13 -96,-24 -142,-32 -45,-9 -86,-17 -122,-25 -37,-7 -66,-16 -87,-26 -22,-11 -33,-24 -34,-40 0,-12 3,-22 9,-32 7,-9 17,-16 33,-22 15,-5 37,-8 64,-8 44,0 89,5 137,15 47,10 93,25 140,46 46,20 89,45 129,76l224 -296c-79,-65 -169,-113 -268,-145 -99,-32 -205,-48 -318,-48 -95,1 -179,13 -250,39 -72,25 -132,59 -180,102 -48,43 -84,92 -108,146 -24,55 -36,112 -36,171 0,67 11,126 33,174 21,48 51,89 87,122 37,32 78,59 123,80 46,21 93,37 142,50 49,12 96,22 142,30 45,8 86,15 123,22 36,7 66,16 87,25 22,10 33,23 33,39 0,18 -8,33 -22,44 -14,11 -33,19 -56,24 -24,5 -48,7 -75,7 -62,0 -121,-8 -175,-24 -55,-16 -105,-37 -150,-64 -46,-27 -86,-57 -120,-90l-218 311c49,44 104,83 167,116 62,32 132,58 211,76 78,18 167,27 264,27zm1415 0c86,0 167,-11 243,-33 76,-22 145,-55 208,-96 62,-42 116,-92 162,-150 46,-59 81,-125 106,-198 25,-73 37,-152 37,-237 0,-86 -12,-165 -37,-238 -25,-73 -60,-139 -106,-198 -46,-58 -100,-108 -162,-150 -63,-41 -132,-74 -208,-96 -76,-22 -157,-33 -243,-33 -85,0 -166,11 -242,33 -76,22 -146,55 -208,96 -63,42 -117,92 -163,150 -45,59 -80,125 -105,198 -25,73 -38,152 -38,238 0,85 13,164 38,237 25,73 60,139 105,198 46,58 100,108 163,150 62,41 132,74 208,96 76,22 157,33 242,33zm0 -369c-50,0 -96,-9 -137,-26 -40,-18 -75,-43 -104,-74 -29,-32 -51,-68 -67,-110 -15,-42 -23,-87 -23,-135 0,-49 8,-94 23,-136 16,-42 38,-78 67,-110 29,-31 64,-56 104,-74 41,-17 87,-26 137,-26 51,0 96,9 137,26 40,18 75,43 104,74 29,32 52,68 67,110 16,42 24,87 24,136 0,48 -8,93 -24,135 -15,42 -38,78 -67,110 -29,31 -64,56 -104,74 -41,17 -86,26 -137,26zm1299 344l0 -515 469 0 0 -365 -469 0 0 -137 483 0 0 -364 -901 0 0 1381 418 0zm1401 0l0 -1017 368 0 0 -364 -1158 0 0 364 371 0 0 1017 419 0z"/>
  <path class="fil5" d="M14563 12172l18 1084c-215,-144 -429,-286 -644,-429 -215,-143 -430,-286 -645,-429 -215,-143 -429,-286 -644,-429 -215,-142 -430,-285 -645,-427 -27,-232 -55,-465 -82,-697l2642 1327zm-3138 -5510c262,-91 525,-182 789,-273 263,-92 525,-183 789,-275 262,-90 525,-182 789,-273 263,-91 526,-183 789,-274l0 1 -24 1064 -2282 555c21,265 42,531 62,797 21,266 42,532 62,797 21,266 42,533 63,797l1 0 -1 0 2090 445 17 1032c0,0 -449,-149 -674,-224 -228,-76 -457,-151 -685,-228 -229,-75 -458,-151 -686,-228 -229,-76 -458,-151 -686,-227 -28,-232 -55,-465 -83,-697 -27,-232 -55,-464 -83,-697 -27,-232 -54,-465 -82,-697 -28,-233 -55,-465 -83,-698 -27,-232 -55,-464 -82,-697zm3153 4l3 0 -3 0 0 0zm-22 1101c-241,24 -482,47 -723,71 -249,24 -499,49 -748,72 14,300 28,599 42,898 242,10 484,18 727,27 230,9 460,17 691,26l11 -1094z"/>
  <path class="fil0" d="M14581 5568l-24 1063 -2282 557 2306 -508 3073 681 -3050 -732 -23 -1061zm-2661 5279l2660 1287 1995 -958 -1977 998 -17 1083 -19 -1083 -2642 -1327zm541 -1267l2090 444 18 1031 12 4 10 -3 34 -1027 1368 -321 -1412 249 -2120 -377zm2095 -1813l-11 1094 36 2 36 -2 -17 -1095 -20 -2 -24 3z"/>
 </g>
</svg>
